<?xml version="1.0" standalone="no"?>
<!DOCTYPE svg PUBLIC "-//W3C//DTD SVG 20010904//EN"
 "http://www.w3.org/TR/2001/REC-SVG-20010904/DTD/svg10.dtd">
<svg version="1.0" xmlns="http://www.w3.org/2000/svg"
 width="1426.000000pt" height="1426.000000pt" viewBox="0 0 1426.000000 1426.000000"
 preserveAspectRatio="xMidYMid meet">
<metadata>
Created by potrace 1.14, written by Peter Selinger 2001-2017
</metadata>
<g transform="translate(0.000000,1426.000000) scale(0.100000,-0.100000)"
fill="#000000" stroke="none">
<path d="M3021 11744 c-35 -7 -91 -22 -125 -33 -34 -11 -87 -25 -119 -31 -69
-14 -182 -59 -287 -115 -95 -51 -228 -180 -294 -287 -26 -43 -52 -78 -56 -78
-4 0 -13 13 -20 30 -7 16 -20 39 -31 51 -10 11 -19 24 -21 27 -9 20 -103 91
-149 114 -84 41 -127 52 -217 54 -233 5 -407 -114 -496 -339 -15 -38 -26 -70
-24 -72 8 -8 47 35 88 95 73 108 199 213 255 213 8 0 15 5 15 10 0 6 3 7 6 4
4 -3 15 -2 25 3 29 16 189 19 234 5 39 -13 39 -13 10 -15 -16 -1 -33 -2 -37
-1 -3 0 -20 -12 -37 -28 -22 -21 -31 -38 -31 -61 0 -34 25 -89 47 -105 11 -9
1 -17 -49 -39 -35 -16 -70 -35 -78 -42 -8 -7 -45 -24 -82 -38 -93 -35 -152
-71 -210 -129 -102 -102 -143 -204 -141 -357 2 -171 78 -325 210 -427 27 -21
32 -31 32 -66 -2 -118 46 -206 130 -239 41 -16 120 -18 162 -3 22 8 42 14 44
14 3 0 30 12 59 27 l54 26 31 -21 c50 -36 128 -28 202 20 l59 38 16 -31 c25
-48 69 -87 104 -94 21 -5 29 -11 26 -21 -4 -10 4 -7 23 6 34 25 53 27 44 6 -3
-9 -2 -15 3 -13 5 2 19 -7 32 -20 20 -20 21 -26 11 -70 -17 -77 -47 -162 -73
-206 -18 -31 -43 -52 -102 -85 -196 -110 -296 -197 -340 -298 -24 -53 -86
-236 -90 -263 -1 -8 -9 -46 -17 -85 -32 -146 -41 -233 -41 -402 0 -73 -3 -133
-8 -133 -4 0 -8 6 -9 13 0 6 -2 19 -3 27 -8 37 -20 137 -20 158 0 12 -2 22 -5
22 -10 0 -16 107 -15 270 0 117 4 171 18 220 10 36 19 72 21 80 2 8 15 39 29
67 14 29 26 57 26 62 0 6 6 14 13 18 6 4 19 21 27 38 17 33 188 210 239 246
47 33 137 129 121 129 -23 0 -211 -117 -275 -171 -62 -53 -139 -138 -183 -204
-48 -71 -107 -214 -118 -282 -3 -21 -9 -57 -13 -80 -11 -55 -11 -252 -1 -328
5 -33 11 -82 14 -110 3 -27 15 -111 26 -185 24 -154 25 -165 41 -280 27 -212
26 -432 -3 -545 -20 -80 -110 -235 -177 -305 -100 -105 -145 -151 -182 -185
-53 -48 -193 -172 -232 -206 -37 -31 -97 -89 -121 -117 -16 -18 -17 -22 -4
-17 9 4 19 13 22 21 3 7 12 11 20 8 26 -10 150 76 397 276 63 51 189 178 229
230 19 25 37 47 41 50 15 13 82 148 99 200 35 108 46 314 26 480 -14 112 -17
192 -8 186 6 -3 14 -20 17 -38 11 -49 121 -378 143 -426 21 -47 17 -105 -16
-192 -38 -103 -35 -100 -217 -255 -32 -27 -63 -55 -69 -61 -6 -5 -38 -34 -71
-64 -198 -177 -418 -389 -500 -481 -82 -92 -95 -109 -141 -186 -91 -150 -323
-488 -361 -525 -53 -51 -134 -89 -202 -95 -50 -4 -57 -3 -70 18 -7 13 -15 50
-17 84 -3 33 -8 76 -13 95 l-8 35 -13 -45 c-14 -50 -17 -68 -19 -122 -1 -51
-23 -49 -61 4 -28 38 -76 166 -73 196 1 20 -15 14 -22 -8 -10 -32 -24 -23 -31
21 -9 53 -21 34 -35 -54 -23 -140 -12 -284 31 -397 11 -30 23 -63 27 -72 3
-10 9 -18 14 -18 5 0 9 -5 9 -11 0 -6 16 -30 36 -54 67 -82 193 -145 293 -146
31 -1 59 -3 64 -6 4 -2 -20 -25 -53 -50 -33 -24 -60 -48 -60 -51 0 -4 -10 -18
-23 -32 -59 -64 -154 -236 -188 -342 -15 -45 -15 -47 5 -52 14 -4 27 1 38 14
19 23 40 27 32 5 -11 -28 24 -5 88 57 94 91 201 153 280 163 16 2 32 6 36 9
37 23 387 22 426 -1 4 -3 25 -8 45 -10 20 -3 48 -12 63 -19 16 -8 28 -13 28
-10 0 22 529 -226 538 -251 6 -19 -114 -128 -171 -156 -107 -51 -229 -52 -329
-2 -44 22 -47 23 -38 5 18 -33 -5 -30 -45 6 -53 47 -57 34 -7 -25 23 -27 42
-54 42 -60 0 -6 4 -11 8 -11 5 0 17 -8 28 -18 30 -29 153 -112 164 -112 5 0
10 -5 10 -10 0 -6 3 -9 8 -8 4 1 25 -7 47 -19 103 -52 283 -104 415 -118 19
-2 35 -4 35 -5 0 -1 20 -4 45 -6 25 -3 70 -9 100 -13 67 -8 442 -6 560 4 47 3
105 8 130 10 85 7 154 15 169 19 9 3 36 8 61 11 67 9 240 53 302 76 29 11 60
22 68 24 45 11 237 99 330 152 51 29 156 99 211 142 26 20 59 45 75 56 59 42
150 122 203 177 29 32 57 55 62 53 6 -5 21 -60 35 -135 3 -14 9 -41 14 -60 5
-19 11 -53 15 -75 3 -22 10 -56 15 -76 6 -20 12 -49 14 -65 2 -16 6 -45 10
-64 14 -79 20 -122 42 -275 3 -22 9 -58 14 -80 16 -69 13 -92 -12 -93 -36 0
-140 -46 -205 -90 -75 -51 -98 -93 -95 -177 8 -248 7 -270 -12 -310 -11 -22
-20 -42 -21 -45 -4 -11 -25 -61 -84 -194 -33 -77 -61 -145 -61 -151 0 -19 38
-48 55 -42 14 6 38 52 100 197 15 36 41 93 56 128 16 34 29 66 29 70 0 15 62
82 76 82 8 0 19 -12 25 -27 12 -32 15 -175 5 -243 -12 -81 -18 -125 -22 -145
-3 -11 -5 -48 -5 -83 -1 -54 3 -68 27 -99 27 -36 123 -87 185 -100 16 -3 32
-10 35 -14 3 -5 15 -9 28 -9 12 0 26 -4 31 -9 6 -4 28 -13 50 -19 22 -5 112
-35 200 -67 250 -89 246 -88 271 -50 16 24 15 27 -7 60 -13 19 -26 35 -29 35
-3 0 -28 18 -55 41 -99 82 -131 108 -175 144 -25 20 -58 51 -73 67 -30 33 -29
23 -12 153 10 71 27 192 31 210 13 68 16 85 13 87 -1 2 3 13 9 24 6 12 14 37
16 55 3 19 7 43 9 54 9 42 17 113 22 185 3 41 11 100 17 130 6 30 12 62 13 70
1 8 4 29 8 45 4 17 9 48 12 70 2 22 6 54 9 70 3 17 8 59 11 94 7 88 18 99 61
58 18 -17 45 -43 60 -57 61 -56 204 -251 204 -277 0 -5 -16 -27 -35 -49 -37
-41 -113 -177 -118 -213 -2 -11 -6 -23 -9 -26 -14 -14 27 -138 55 -167 100
-105 142 -172 153 -245 3 -21 7 -45 10 -55 3 -9 9 -40 14 -70 41 -242 54 -297
71 -299 39 -6 44 -3 47 26 2 16 -2 56 -8 90 -7 33 -14 69 -16 80 -1 11 -10 61
-19 110 -9 50 -18 102 -19 117 -1 15 -5 30 -8 33 -10 10 7 78 23 88 12 7 24 4
47 -13 44 -33 91 -105 176 -275 41 -82 83 -157 93 -165 42 -35 68 -40 143 -27
57 11 74 15 103 26 15 6 27 9 27 6 0 -2 18 2 40 10 22 8 42 14 45 15 3 0 6 0
8 1 1 0 13 2 27 5 14 2 42 11 63 19 20 8 37 13 37 10 0 -2 18 2 40 10 22 8 40
12 40 10 0 -3 11 0 25 5 14 5 36 12 48 14 12 2 42 10 67 17 60 17 57 16 78 18
26 2 62 38 62 62 0 51 -53 69 -255 83 -58 4 -150 14 -190 21 -33 5 -55 17 -56
29 -1 13 -3 28 -18 98 -7 29 -14 69 -17 88 -22 157 -82 297 -235 553 -35 59
-69 117 -75 127 -6 11 -19 29 -29 40 -10 11 -14 20 -9 20 5 0 4 4 -2 8 -34 22
-179 285 -264 477 -12 28 -33 73 -45 101 -13 28 -51 122 -85 210 -34 87 -66
168 -70 179 -26 65 -70 165 -122 272 -61 128 -63 138 -23 183 36 41 78 128
116 240 29 87 31 237 4 315 -17 49 -89 195 -97 195 -4 0 -8 5 -8 11 0 6 -6 16
-12 24 -7 7 -29 32 -48 56 -19 23 -53 59 -74 78 -22 20 -47 43 -56 51 -33 31
-137 96 -195 122 -33 15 -141 57 -240 93 -99 36 -196 72 -215 80 -80 31 -184
67 -330 115 -209 68 -211 68 -243 74 -15 3 -35 7 -45 10 -9 3 -78 8 -152 11
-257 11 -263 13 -294 76 -27 57 -17 73 22 35 21 -19 99 -57 115 -55 1 0 16 -5
32 -11 50 -19 95 2 187 88 144 134 353 345 384 387 16 22 31 42 34 45 15 15
50 71 50 80 0 5 5 10 10 10 6 0 10 4 10 9 0 5 23 47 50 94 28 47 50 89 50 95
0 5 7 15 15 22 9 7 13 15 11 18 -3 3 3 17 13 31 20 29 158 298 175 341 3 8 35
69 71 135 36 66 97 185 136 265 85 171 173 293 221 308 18 6 65 10 103 10 86
0 97 2 210 42 50 17 106 37 125 43 19 6 37 14 40 18 3 4 34 6 69 5 52 -1 68 2
82 17 13 15 25 18 46 12 50 -13 60 -13 72 -6 7 5 14 17 15 27 2 10 12 20 24
22 31 5 39 42 14 63 -22 17 -233 109 -252 109 -23 0 -7 20 38 48 27 17 65 44
85 62 33 28 35 34 25 56 -10 21 -17 25 -41 20 -16 -3 -41 -14 -55 -25 -15 -10
-92 -40 -172 -65 -80 -25 -154 -50 -165 -56 -11 -5 -93 -39 -183 -75 -190 -76
-338 -146 -369 -173 -21 -18 -93 -125 -93 -137 0 -4 -15 -37 -34 -73 -175
-346 -209 -394 -472 -658 -185 -187 -213 -211 -217 -191 -7 26 -1 422 6 452 2
11 8 54 12 95 4 41 10 89 12 105 2 17 6 113 7 213 5 265 -23 362 -125 443 -24
19 -46 33 -49 33 -5 -2 -6 -1 -65 17 -21 6 -82 13 -135 14 -59 1 -116 8 -150
19 -30 10 -61 20 -69 22 -16 5 -14 12 28 164 36 132 60 186 101 227 57 57 213
101 387 108 51 2 102 7 115 10 54 17 105 46 135 77 29 31 31 37 29 96 -3 58
-2 63 20 68 36 9 76 62 68 88 -4 11 -13 26 -21 31 -12 9 -12 16 1 51 14 41 14
42 -15 78 l-30 36 23 22 c13 13 36 33 52 44 22 16 29 29 28 54 -1 27 -15 47
-91 122 -50 49 -91 95 -91 103 0 10 10 15 28 15 29 0 69 33 72 60 2 17 -10 60
-17 60 -2 0 -19 -11 -37 -25 -60 -45 -63 -39 -62 93 1 123 -7 158 -61 261 -13
25 -25 55 -28 68 -14 81 -76 217 -118 261 -92 97 -208 143 -372 147 -68 2
-135 -2 -174 -11z"/>
<path d="M8855 9316 c-99 -26 -199 -83 -231 -132 -15 -22 -15 -26 0 -49 9 -14
39 -40 67 -56 30 -19 51 -40 55 -56 11 -44 -12 -156 -50 -248 -67 -157 -194
-409 -289 -575 -33 -58 -66 -114 -72 -125 -12 -22 -70 -121 -85 -145 -80 -128
-230 -373 -230 -375 0 -2 -22 -38 -50 -79 -27 -42 -50 -77 -50 -79 0 -2 -26
-44 -58 -93 -32 -49 -70 -109 -85 -134 -31 -50 -79 -126 -312 -490 -88 -137
-171 -268 -185 -290 -45 -72 -393 -624 -422 -668 -15 -24 -28 -45 -28 -47 0
-3 -15 -28 -34 -57 -50 -80 -228 -392 -274 -483 -72 -143 -83 -174 -89 -260
-3 -33 -9 -65 -14 -71 -20 -24 5 -92 35 -100 33 -8 44 -3 127 52 97 66 212
121 275 133 27 5 99 9 159 10 153 1 271 -15 445 -59 112 -29 366 -95 430 -112
87 -23 78 -21 196 -47 129 -29 182 -35 324 -34 200 1 328 34 372 96 16 23 22
45 22 86 0 140 -48 254 -137 325 -42 33 -71 37 -182 21 -73 -10 -282 -11 -465
-2 -199 10 -228 13 -435 38 -146 17 -185 20 -280 20 -90 1 -222 -8 -234 -15
-3 -2 -26 -7 -51 -10 -25 -3 -87 -19 -137 -35 -64 -20 -93 -25 -93 -17 0 7 24
44 53 82 29 38 95 125 147 194 52 69 99 129 103 135 7 9 119 157 177 235 10
14 47 63 82 110 34 47 68 91 75 98 7 7 13 16 13 20 0 4 14 22 30 41 17 18 30
37 30 40 0 4 8 16 18 27 10 10 71 93 137 184 66 91 123 167 128 169 5 2 12 13
18 25 5 11 79 118 164 236 85 118 159 222 165 230 22 33 152 216 163 230 7 8
18 27 25 41 8 15 25 38 38 52 13 14 24 28 24 31 0 2 64 100 143 218 78 117
175 265 214 328 40 63 77 121 83 128 6 6 8 12 5 12 -3 0 -1 6 5 13 18 21 100
158 100 168 0 5 5 9 10 9 6 0 10 5 10 11 0 7 14 35 31 63 53 85 176 326 210
411 74 182 92 325 54 420 -24 60 -39 88 -53 104 -7 8 -20 24 -29 37 -38 59
-197 90 -308 60z"/>
<path d="M5805 8920 c-29 -11 -36 -22 -102 -150 -32 -63 -83 -152 -113 -197
l-55 -83 -155 -1 c-358 -3 -748 -9 -795 -12 -63 -5 -107 -26 -111 -52 -9 -62
58 -179 110 -191 27 -6 351 -8 644 -4 73 1 136 0 138 -3 3 -3 -16 -38 -42 -79
-109 -169 -217 -341 -318 -503 -47 -77 -91 -147 -96 -155 -5 -8 -24 -40 -42
-70 -17 -30 -34 -57 -38 -60 -5 -4 -114 -188 -144 -245 -6 -11 -16 -27 -23
-35 -24 -31 -114 -220 -129 -271 -24 -79 -24 -86 -5 -103 17 -15 20 -15 39 1
12 10 32 39 46 64 24 46 77 125 151 224 22 29 47 63 55 74 8 12 132 178 275
369 143 191 268 358 277 372 21 31 204 281 215 295 5 6 18 26 31 46 43 71 67
89 117 89 25 0 45 -3 45 -6 0 -3 -51 -75 -112 -159 -62 -84 -119 -161 -126
-171 -7 -11 -40 -57 -74 -104 -56 -78 -257 -379 -316 -475 -14 -22 -33 -52
-43 -67 -55 -80 -73 -160 -55 -235 9 -37 22 -50 59 -57 24 -4 84 17 97 34 3 4
10 9 16 11 13 4 105 83 169 144 46 44 251 235 294 275 15 14 67 59 117 100 49
41 98 84 109 95 28 28 85 58 85 45 0 -5 -76 -89 -170 -186 -190 -197 -226
-252 -217 -332 10 -88 85 -145 190 -144 84 1 123 7 195 31 73 25 214 91 257
120 42 29 51 27 81 -21 36 -59 73 -97 109 -113 135 -59 274 -65 479 -20 42 9
220 83 286 118 117 64 316 224 326 263 7 27 -11 64 -31 64 -8 0 -46 -24 -84
-54 -101 -78 -333 -191 -434 -211 -10 -2 -27 -7 -37 -10 -42 -13 -92 -18 -210
-19 -180 -1 -240 24 -240 103 0 36 13 41 60 25 85 -29 257 -6 378 51 182 86
294 232 296 386 1 55 -3 72 -27 107 -44 67 -93 94 -174 94 -37 0 -81 -2 -96
-5 -142 -29 -293 -121 -434 -263 -107 -109 -183 -226 -198 -308 -7 -36 -12
-40 -97 -81 -91 -45 -218 -92 -273 -101 -53 -9 -126 -10 -132 -1 -5 9 26 40
121 122 57 49 124 114 177 172 84 91 138 216 126 291 -10 64 -12 69 -37 104
-42 62 -84 83 -165 83 -62 0 -81 -5 -145 -37 -41 -20 -76 -36 -77 -34 -2 1 5
11 15 22 9 10 35 42 56 69 22 28 48 59 58 70 10 11 33 39 51 61 55 70 100 126
114 139 18 18 111 24 473 30 434 7 748 13 1060 21 146 3 306 7 356 8 92 2 124
13 124 42 0 24 -44 43 -110 49 -93 7 -179 15 -224 21 -22 2 -76 6 -120 9 -45
3 -97 7 -116 10 -32 4 -127 11 -270 19 -30 2 -102 7 -160 10 -156 11 -370 20
-684 31 -65 2 -120 6 -123 9 -3 2 18 37 45 78 27 40 57 88 66 105 15 31 15 35
0 58 -23 36 -65 55 -132 61 l-57 5 -37 -48 c-20 -26 -52 -65 -70 -85 -37 -41
-54 -63 -101 -125 l-32 -42 -72 -1 c-40 0 -73 3 -73 6 0 3 32 62 70 130 39 69
70 131 70 138 0 7 5 17 11 23 19 19 18 85 -2 106 -29 31 -136 47 -184 27z"/>
<path d="M11935 8223 c-53 -10 -145 -50 -192 -85 -46 -34 -97 -103 -91 -125
12 -54 -151 -599 -241 -808 -10 -22 -37 -88 -61 -147 -24 -60 -48 -108 -52
-108 -5 0 -24 14 -41 32 -41 41 -122 92 -170 108 -35 11 -99 9 -179 -5 -33 -6
-113 -39 -198 -82 -133 -67 -264 -167 -405 -308 -186 -185 -322 -373 -416
-573 -41 -87 -92 -232 -84 -240 2 -3 0 -13 -5 -22 -16 -31 -22 -186 -10 -248
17 -81 75 -193 143 -273 32 -38 61 -69 65 -69 4 0 19 -11 33 -24 47 -44 154
-87 226 -91 37 -2 71 -1 77 3 6 3 16 7 23 8 57 9 210 109 306 201 74 71 209
219 251 278 11 14 30 38 43 53 13 15 33 42 46 59 12 18 27 33 32 33 6 0 16
-43 23 -95 16 -119 46 -228 77 -281 39 -67 143 -135 195 -127 49 7 58 29 64
148 3 61 8 130 11 155 3 25 7 65 9 90 5 46 22 170 32 225 12 72 67 304 95 403
2 7 32 97 67 200 34 103 64 194 66 202 3 8 14 40 26 70 12 30 23 62 25 70 2 8
11 33 20 55 20 47 65 168 101 275 15 41 48 128 75 192 27 65 56 137 65 160 24
67 95 271 99 288 24 89 45 178 56 239 14 83 7 107 -44 145 -26 19 -104 28
-162 19z m-739 -1512 c-94 -195 -209 -410 -299 -561 -55 -94 -217 -342 -228
-350 -4 -3 -28 -34 -55 -70 -26 -36 -95 -113 -153 -171 -111 -110 -196 -164
-271 -173 -42 -4 -90 18 -91 42 -1 9 -2 30 -4 46 -3 39 21 153 46 211 51 122
179 355 201 363 4 2 8 8 8 14 0 8 43 71 60 88 3 3 28 32 55 65 129 155 317
318 460 400 28 16 52 32 55 35 3 3 12 6 20 8 8 2 23 11 33 19 9 9 17 14 17 11
0 -3 30 7 67 21 86 35 96 36 79 2z"/>
<path d="M12401 7212 c-39 -6 -70 -31 -138 -112 -173 -201 -312 -478 -388
-770 -9 -36 -19 -76 -21 -90 -2 -14 -6 -34 -9 -45 -10 -48 -18 -167 -17 -257
1 -75 6 -112 26 -169 57 -163 198 -340 320 -399 51 -25 70 -29 116 -25 73 6
76 7 142 37 128 59 280 190 378 326 24 34 47 62 51 62 7 0 -12 -115 -36 -215
-9 -38 -19 -79 -20 -90 -2 -11 -16 -58 -30 -105 -15 -47 -31 -98 -36 -114 -13
-42 -59 -164 -80 -213 -11 -24 -19 -47 -19 -52 0 -24 -27 -29 -95 -15 -68 13
-239 42 -300 50 -16 2 -46 6 -65 9 -85 13 -169 25 -220 30 -30 3 -66 8 -80 10
-14 3 -50 7 -80 10 -30 3 -75 7 -100 10 -185 21 -356 30 -580 30 -187 0 -466
-10 -560 -19 -25 -3 -74 -8 -110 -12 -36 -3 -78 -8 -95 -10 -16 -1 -59 -8 -95
-14 -36 -6 -78 -12 -95 -14 -46 -6 -179 -35 -280 -61 -431 -112 -704 -295
-836 -560 -22 -44 -41 -90 -44 -103 -2 -13 -7 -32 -10 -42 -13 -42 -17 -70
-20 -165 -6 -188 39 -328 160 -500 44 -62 172 -190 222 -222 15 -9 30 -20 33
-23 28 -30 220 -128 310 -159 36 -12 72 -25 80 -28 43 -17 178 -52 230 -59 25
-3 52 -7 60 -9 68 -19 424 -26 575 -12 119 12 239 34 361 68 60 16 116 31 124
33 130 33 423 165 584 262 60 36 206 133 223 148 7 6 18 16 25 21 143 110 275
229 398 359 41 44 85 90 98 103 12 13 22 28 22 33 0 4 4 10 9 12 14 5 121 144
192 248 35 52 67 97 70 100 4 3 15 21 25 40 11 19 27 46 36 60 9 14 34 59 56
100 38 71 42 75 74 74 122 -5 713 -201 998 -332 36 -16 116 -55 179 -85 63
-31 118 -54 123 -51 17 11 6 35 -32 70 -45 42 -110 88 -110 78 0 -3 -6 -1 -14
5 -43 36 -338 167 -616 274 -69 27 -311 103 -420 132 -36 10 -69 21 -73 25 -4
4 11 47 34 96 60 130 87 193 95 219 2 6 22 60 45 120 22 61 42 117 44 125 2 8
12 40 23 70 30 86 110 355 137 460 6 24 16 69 19 85 2 11 9 40 16 65 15 55 12
44 50 225 17 83 33 159 36 170 2 11 7 35 10 54 3 19 9 44 13 55 12 35 13 111
1 155 -30 113 -169 250 -256 253 -43 2 -61 -15 -75 -66 -59 -216 -184 -493
-338 -748 -9 -15 -33 -56 -54 -91 -117 -195 -325 -429 -427 -480 -85 -42 -150
-34 -165 20 -10 33 -10 47 -1 133 8 71 11 88 18 110 3 8 17 51 31 95 14 44 31
94 38 110 7 17 13 32 14 35 4 12 25 59 51 115 15 33 28 62 29 65 2 7 96 189
117 225 9 17 20 37 24 45 5 8 46 78 92 155 88 148 85 138 68 230 -1 6 -15 33
-31 60 -57 99 -168 177 -234 167z m-1041 -2246 c30 -3 96 -8 145 -11 50 -3 97
-8 105 -10 8 -2 56 -7 105 -10 50 -3 117 -10 150 -15 33 -5 85 -12 115 -15 30
-3 66 -7 80 -9 14 -3 50 -7 81 -11 31 -3 65 -7 75 -9 29 -5 127 -20 144 -21
13 -1 39 -5 125 -21 6 -1 22 -2 38 -3 34 -1 34 -12 -1 -81 -171 -333 -342
-573 -581 -810 -250 -248 -486 -409 -766 -523 -336 -137 -642 -183 -989 -151
-76 7 -151 16 -165 19 -14 3 -39 8 -56 11 -239 43 -482 160 -625 302 -133 133
-195 269 -205 454 -4 78 14 205 34 247 5 9 15 30 22 46 8 17 27 50 44 75 43
66 181 200 204 200 5 0 11 4 13 8 7 17 230 137 273 147 6 1 24 7 40 14 84 35
225 76 335 97 14 3 33 7 42 10 10 3 28 7 40 9 13 2 50 8 83 14 155 27 245 36
450 47 66 3 122 7 123 9 5 5 459 -3 522 -9z"/>
<path d="M9210 7204 c-8 -1 -49 -8 -90 -14 -150 -25 -340 -101 -468 -189 -116
-80 -229 -204 -238 -263 -6 -36 17 -108 35 -108 6 0 11 -6 11 -14 0 -37 130
-113 208 -123 72 -8 107 13 172 105 122 172 329 347 445 377 96 24 129 12 141
-52 14 -73 -3 -198 -56 -418 -45 -186 -56 -219 -71 -209 -11 6 -161 6 -294 0
-104 -6 -229 -25 -330 -52 -49 -13 -97 -26 -106 -28 -33 -9 -147 -59 -199 -89
-91 -52 -159 -118 -191 -187 -49 -104 6 -273 128 -396 112 -110 215 -156 357
-160 145 -3 253 36 380 137 27 22 53 36 57 32 4 -4 10 -24 12 -45 5 -47 60
-144 106 -186 20 -18 64 -47 98 -64 51 -25 71 -30 108 -26 62 7 82 32 84 106
3 93 10 143 31 222 11 41 22 83 25 93 2 10 7 27 10 37 3 10 8 27 10 37 2 10
22 77 44 148 36 119 99 349 105 385 2 8 8 40 14 70 7 30 14 82 17 115 6 67 7
282 2 305 -15 70 -24 94 -54 158 -41 86 -124 180 -205 233 -78 50 -210 78
-298 63z m40 -1117 c0 -17 -90 -178 -135 -242 -150 -210 -359 -308 -466 -218
-57 49 -23 131 106 256 32 31 65 57 72 57 7 0 13 4 13 10 0 12 214 117 252
124 15 2 32 7 37 10 5 3 26 8 47 12 22 3 41 7 42 9 7 7 32 -7 32 -18z"/>
<path d="M4792 6606 c20 -14 38 -29 40 -33 1 -5 30 -28 63 -53 141 -104 276
-267 324 -388 51 -128 63 -263 36 -380 -16 -69 -54 -165 -67 -170 -4 -2 -8 -8
-8 -14 0 -5 -27 -43 -61 -85 -36 -45 -52 -70 -38 -63 16 9 23 9 29 1 17 -29
200 183 200 232 0 9 4 18 9 21 14 9 40 145 40 210 1 276 -189 552 -485 705
-34 18 -75 34 -90 37 -29 5 -28 4 8 -20z"/>
<path d="M808 4934 c-2 -1 -24 -5 -48 -7 -115 -11 -244 -72 -321 -151 -47 -48
-106 -131 -77 -110 7 6 24 11 37 12 13 0 27 5 30 11 16 26 142 94 221 121 54
17 116 24 220 24 167 -1 301 -31 511 -115 89 -35 145 -46 133 -27 -11 18 -132
93 -214 134 -88 44 -226 89 -303 99 -53 7 -185 14 -189 9z"/>
<path d="M6346 4388 c-66 -9 -124 -52 -158 -113 -22 -41 -26 -60 -25 -115 5
-142 103 -243 238 -244 174 -1 281 176 205 337 -49 101 -147 152 -260 135z
m132 -86 c45 -20 72 -62 76 -119 10 -111 -59 -194 -163 -196 -90 -1 -148 57
-156 155 -11 126 124 215 243 160z"/>
<path d="M7755 4383 c-97 -33 -147 -106 -147 -212 0 -80 19 -130 72 -181 55
-53 109 -68 258 -68 95 0 126 3 137 15 8 8 15 18 15 23 0 15 -41 39 -61 35
-12 -2 -19 2 -19 11 0 8 4 14 8 14 10 0 32 54 42 104 18 88 -49 207 -141 249
-47 22 -118 26 -164 10z m147 -74 c64 -34 91 -85 84 -157 -10 -106 -106 -177
-204 -150 -49 13 -80 43 -93 91 -12 47 -13 63 -6 99 17 81 72 126 155 127 24
1 52 -4 64 -10z"/>
<path d="M5810 4380 c-7 -5 -11 -78 -11 -214 -1 -250 -3 -244 104 -243 119 0
190 37 203 104 8 44 -2 80 -30 108 l-24 24 19 35 c25 47 24 82 -3 123 -33 47
-78 66 -170 68 -43 1 -82 -2 -88 -5z m195 -90 c42 -46 -35 -115 -108 -96 -25
6 -27 11 -27 55 0 26 3 51 7 54 3 4 30 7 58 7 39 0 56 -5 70 -20z m-6 -171
c35 -12 49 -46 32 -78 -16 -29 -40 -40 -105 -47 l-56 -7 0 66 c0 43 4 67 13
70 22 10 83 7 116 -4z"/>
<path d="M6695 4379 c-11 -16 -3 -311 8 -344 11 -31 77 -117 77 -100 0 4 7 2
15 -5 28 -23 126 -16 168 11 62 40 77 91 75 255 -1 144 -12 195 -43 190 -8 -1
-17 -5 -20 -8 -3 -3 -6 -67 -6 -142 -1 -147 -9 -194 -38 -220 -44 -40 -130
-36 -153 7 -7 14 -12 75 -13 167 0 119 -4 150 -18 170 -17 25 -43 34 -52 19z"/>
<path d="M7079 4378 c-5 -28 -3 -35 15 -50 13 -13 36 -18 73 -18 l53 0 0 -179
c0 -188 4 -207 47 -199 16 3 18 20 23 188 l5 185 35 3 c100 7 121 22 83 60
-14 14 -41 17 -175 17 -87 0 -159 -3 -159 -7z"/>
<path d="M7472 4377 c-11 -15 -9 -393 1 -424 6 -15 16 -23 32 -23 32 0 35 18
35 225 -1 132 -4 187 -14 204 -15 27 -40 35 -54 18z"/>
<path d="M8136 4382 c-3 -3 -6 -76 -6 -162 0 -163 7 -198 47 -246 68 -81 203
-77 266 7 27 37 36 94 37 225 0 101 -12 173 -28 175 -4 0 -15 2 -25 4 -23 4
-26 -15 -24 -172 2 -145 -6 -182 -49 -210 -34 -22 -102 -19 -129 7 -17 18 -20
37 -23 177 -2 114 -7 162 -17 177 -15 20 -39 29 -49 18z"/>
<path d="M8572 4375 c-4 -5 -7 -102 -8 -215 0 -169 2 -208 15 -220 11 -12 43
-15 138 -16 131 -2 151 5 138 46 -6 18 -14 20 -110 20 l-103 0 -4 56 c-1 31 0
60 3 66 4 5 46 11 94 13 95 4 110 12 92 52 -10 22 -16 23 -99 23 -95 0 -90 -3
-90 60 0 17 1 35 1 40 1 6 38 10 90 10 100 0 121 5 121 29 -1 41 -14 45 -145
46 -77 0 -129 -3 -133 -10z"/>
<path d="M1200 4354 c0 -24 176 -204 199 -204 5 0 11 -4 13 -8 5 -12 114 -76
183 -107 66 -30 246 -90 297 -100 105 -19 277 -42 310 -41 21 1 38 -1 38 -4 0
-10 320 1 405 13 22 4 65 9 95 12 133 15 345 71 535 143 97 37 229 101 233
113 2 5 10 9 18 9 8 0 14 5 14 10 0 6 4 9 8 8 12 -4 73 50 76 66 1 8 8 22 16
32 17 20 15 19 -67 -24 -134 -69 -348 -142 -558 -188 -55 -12 -253 -45 -303
-50 -31 -3 -68 -7 -82 -10 -47 -10 -465 -12 -535 -3 -38 5 -95 11 -125 15 -46
4 -109 17 -250 49 -124 28 -317 122 -434 210 -48 36 -86 62 -86 59z"/>
</g>
</svg>
